<svg width="130" height="34" viewBox="0 0 130 34" fill="none" xmlns="http://www.w3.org/2000/svg">
<g clip-path="url(#clip0_2037_7092)">
<path d="M70.6822 10.6854C70.297 10.394 69.9118 10.2969 69.5266 10.2969C68.5637 10.394 67.697 10.8797 67.1192 11.6569C66.4452 12.5312 65.8674 13.5026 65.5785 14.5712L65.3859 10.394L60.7637 11.074V11.3654C61.2452 11.5597 61.534 11.9483 61.8229 12.3369C62.0155 12.9197 62.1118 13.5997 62.1118 14.2797V27.2969C62.1118 27.7826 62.0155 28.3654 61.8229 28.754C61.7266 28.9483 61.534 29.0454 61.3415 29.1426C61.1489 29.2397 60.9563 29.3369 60.7637 29.3369V29.6283H67.697V29.3369C67.0229 29.2397 66.4452 28.9483 66.06 28.4626C65.6748 27.8797 65.5785 27.1997 65.5785 26.5197V15.4454C65.8674 14.6683 66.2526 13.9883 66.8303 13.3083C67.0229 13.114 67.2155 12.9197 67.4081 12.8226C67.6007 12.7254 67.8896 12.6283 68.1785 12.6283C68.4674 12.6283 68.7563 12.7254 68.9489 12.8226C69.2377 12.9197 69.5266 13.0169 69.8155 12.9197C70.0081 12.9197 70.2007 12.9197 70.297 12.8226C70.5859 12.7254 70.8748 12.434 70.9711 12.1426C71.0674 11.754 71.0674 11.4626 70.9711 11.074C70.9711 10.9769 70.8748 10.7826 70.6822 10.6854Z" fill="#31373D"/>
<path d="M97.5466 10.2969V10.6854C98.8948 11.1712 99.5689 12.0454 99.5689 13.3083C99.5689 13.6969 99.5689 13.9883 99.4726 14.3769C99.3763 14.8626 99.28 15.4454 99.0874 15.9312C98.8948 16.6112 98.6059 17.2912 98.317 18.1654L95.8133 24.9654L92.0577 15.2512C91.6726 14.2797 91.3837 13.5997 91.2874 13.2112C91.1911 12.8226 91.0948 12.434 91.0948 12.0454C91.0948 11.3654 91.48 10.8797 92.0577 10.6854V10.394H85.2207V10.6854C85.8948 11.074 86.3763 11.6569 86.7614 12.3369C87.5318 13.794 88.2059 15.2512 88.7837 16.7083L93.9837 29.6283H94.6577L99.4726 17.9712C100.05 16.514 100.532 15.3483 101.013 14.474C101.398 13.5997 101.784 12.8226 102.073 12.3369C102.265 11.9483 102.554 11.4626 102.939 11.1712C103.228 10.8797 103.517 10.6854 103.902 10.5883V10.2969H97.5466Z" fill="#31373D"/>
<path d="M116.905 25.3541C115.845 26.5199 114.305 27.1027 112.764 27.1027C111.416 27.1027 110.068 26.7141 109.008 25.937C107.853 25.0627 106.986 23.897 106.408 22.6341C105.734 21.0799 105.445 19.5256 105.445 17.8741H117.001V16.9999C117.097 15.1541 116.423 13.4056 115.171 12.1427C113.919 10.8799 112.186 10.1999 110.453 10.297C109.008 10.297 107.66 10.6856 106.505 11.5599C105.253 12.4341 104.386 13.697 103.712 15.057C103.038 16.6113 102.653 18.3599 102.749 20.1084C102.749 21.9541 103.038 23.7999 103.808 25.4513C104.482 26.9084 105.445 28.0741 106.793 28.9484C108.142 29.8227 109.682 30.2113 111.223 30.2113C112.475 30.2113 113.631 29.8227 114.593 29.0456C115.653 28.0741 116.519 26.9084 117.001 25.5484L116.905 25.3541ZM106.89 12.8227C107.66 11.657 109.008 10.977 110.356 10.977C111.319 10.977 112.186 11.2684 112.86 11.9484C113.534 12.6284 113.823 13.5027 113.823 14.4741C113.823 14.8627 113.823 15.1541 113.631 15.4456C113.438 15.737 113.245 16.0284 112.956 16.2227C112.09 16.7084 111.031 16.9027 110.068 16.9027L105.542 16.9999C105.542 15.5427 106.023 14.0856 106.89 12.8227Z" fill="#31373D"/>
<path d="M118.445 29.6285V29.3371C118.83 29.2399 119.216 29.0456 119.408 28.7542C119.601 28.2685 119.697 27.7828 119.697 27.2971V8.54851C119.697 7.86851 119.601 7.28565 119.408 6.60565C119.216 6.21708 118.83 5.82851 118.445 5.63422V5.34279L123.164 4.46851V27.1999C123.164 27.6856 123.26 28.2685 123.453 28.6571C123.549 28.8514 123.742 28.9485 123.838 29.0456C124.031 29.1428 124.223 29.2399 124.416 29.2399V29.5314L118.445 29.6285Z" fill="#31373D"/>
<path d="M90.326 29.0458C89.9408 28.9487 89.5556 28.6572 89.363 28.2687C88.9779 27.6858 88.689 27.0058 88.5927 26.3258L85.4149 16.0287C84.8371 13.7944 83.9704 11.9487 82.8149 11.0744C81.6593 10.2001 80.1186 9.81153 78.0001 10.0058C76.9408 10.103 75.9779 10.2972 75.0149 10.6858C74.2445 10.9772 73.5704 11.5601 72.9927 12.143C72.8001 12.4344 72.6075 12.7258 72.5112 13.0172C72.4149 13.3087 72.3186 13.6972 72.4149 13.9887C72.4149 14.183 72.4149 14.3772 72.5112 14.4744C72.6075 14.6687 72.7038 14.7658 72.8001 14.863C72.8964 14.9601 73.089 15.0572 73.1853 15.0572C73.3779 15.1544 73.4741 15.1544 73.6667 15.0572C74.3408 14.9601 74.726 14.4744 74.8223 13.503C74.8223 12.7258 75.1112 12.0458 75.5927 11.463C76.0741 10.9772 76.8445 10.6858 77.5186 10.6858C78.1927 10.5887 78.7704 10.6858 79.3482 11.0744C79.926 11.463 80.3112 12.0458 80.6001 12.7258C80.889 13.4058 81.1779 13.9887 81.3704 14.6687C78.289 16.3201 76.0741 17.9715 74.6297 19.5258C73.1853 20.983 72.5112 23.023 72.8001 25.063C72.8964 26.6172 73.6667 27.9772 74.9186 28.8515C76.2667 29.823 77.9038 30.1144 79.5408 29.9201C80.9853 29.823 82.4297 29.2401 83.489 28.3658C84.163 27.8801 84.6445 27.2001 85.126 26.423C85.3186 27.2972 85.8001 28.0744 86.3779 28.7544C86.763 29.0458 87.1482 29.2401 87.5334 29.3372C87.9186 29.4344 88.4001 29.4344 88.8816 29.4344L90.326 29.3372V29.0458ZM83.7779 26.8115C83.0075 27.3944 82.1408 27.783 81.1779 27.8801C80.5038 27.9772 79.926 27.9772 79.3482 27.783C78.7704 27.5887 78.1927 27.2972 77.7112 26.9087C76.8445 26.0344 76.2667 24.8687 76.1704 23.6058C76.0741 21.9544 76.6519 20.303 77.7112 18.943C78.7704 17.4858 80.1186 16.223 81.563 15.2515C81.6593 15.543 81.7556 15.9315 81.8519 16.3201L84.8371 25.8401C84.5482 26.2287 84.163 26.5201 83.7779 26.8115Z" fill="#31373D"/>
<path d="M49.3025 5.34279V26.7142C49.3988 27.2971 49.2062 27.9771 48.9174 28.4628C48.5322 28.8514 47.9544 29.1428 47.4729 29.2399V29.6285H54.8877V29.2399C54.31 29.1428 53.8285 28.9485 53.347 28.4628C53.0581 27.9771 52.8655 27.2971 52.9618 26.7142V5.34279H53.2507C56.0433 5.43993 58.8359 6.60565 60.3766 9.42279L60.8581 9.32565L59.51 4.46851H42.7544L41.4062 9.32565L41.8877 9.42279C43.4285 6.60565 46.2211 5.43993 49.0137 5.34279H49.3025Z" fill="#31373D"/>
<path d="M70.6822 10.6854C70.297 10.394 69.9118 10.2969 69.5266 10.2969C68.5637 10.394 67.697 10.8797 67.1192 11.6569C66.4452 12.5312 65.8674 13.5026 65.5785 14.5712L65.3859 10.394L60.7637 11.074V11.3654C61.2452 11.5597 61.534 11.9483 61.8229 12.3369C62.0155 12.9197 62.1118 13.5997 62.1118 14.2797V27.2969C62.1118 27.7826 62.0155 28.3654 61.8229 28.754C61.7266 28.9483 61.534 29.0454 61.3415 29.1426C61.1489 29.2397 60.9563 29.3369 60.7637 29.3369V29.6283H67.697V29.3369C67.0229 29.2397 66.4452 28.9483 66.06 28.4626C65.6748 27.8797 65.5785 27.1997 65.5785 26.5197V15.4454C65.8674 14.6683 66.2526 13.9883 66.8303 13.3083C67.0229 13.114 67.2155 12.9197 67.4081 12.8226C67.6007 12.7254 67.8896 12.6283 68.1785 12.6283C68.4674 12.6283 68.7563 12.7254 68.9489 12.8226C69.2377 12.9197 69.5266 13.0169 69.8155 12.9197C70.0081 12.9197 70.2007 12.9197 70.297 12.8226C70.5859 12.7254 70.8748 12.434 70.9711 12.1426C71.0674 11.754 71.0674 11.4626 70.9711 11.074C70.9711 10.9769 70.8748 10.7826 70.6822 10.6854Z" fill="#31373D"/>
<path d="M97.5466 10.2969V10.6854C98.8948 11.1712 99.5689 12.0454 99.5689 13.3083C99.5689 13.6969 99.5689 13.9883 99.4726 14.3769C99.3763 14.8626 99.28 15.4454 99.0874 15.9312C98.8948 16.6112 98.6059 17.2912 98.317 18.1654L95.8133 24.9654L92.0577 15.2512C91.6726 14.2797 91.3837 13.5997 91.2874 13.2112C91.1911 12.8226 91.0948 12.434 91.0948 12.0454C91.0948 11.3654 91.48 10.8797 92.0577 10.6854V10.394H85.2207V10.6854C85.8948 11.074 86.3763 11.6569 86.7614 12.3369C87.5318 13.794 88.2059 15.2512 88.7837 16.7083L93.9837 29.6283H94.6577L99.4726 17.9712C100.05 16.514 100.532 15.3483 101.013 14.474C101.398 13.5997 101.784 12.8226 102.073 12.3369C102.265 11.9483 102.554 11.4626 102.939 11.1712C103.228 10.8797 103.517 10.6854 103.902 10.5883V10.2969H97.5466Z" fill="#31373D"/>
<path d="M116.905 25.3541C115.845 26.5199 114.305 27.1027 112.764 27.1027C111.416 27.1027 110.068 26.7141 109.008 25.937C107.853 25.0627 106.986 23.897 106.408 22.6341C105.734 21.0799 105.445 19.5256 105.445 17.8741H117.001V16.9999C117.097 15.1541 116.423 13.4056 115.171 12.1427C113.919 10.8799 112.186 10.1999 110.453 10.297C109.008 10.297 107.66 10.6856 106.505 11.5599C105.253 12.4341 104.386 13.697 103.712 15.057C103.038 16.6113 102.653 18.3599 102.749 20.1084C102.749 21.9541 103.038 23.7999 103.808 25.4513C104.482 26.9084 105.445 28.0741 106.793 28.9484C108.142 29.8227 109.682 30.2113 111.223 30.2113C112.475 30.2113 113.631 29.8227 114.593 29.0456C115.653 28.0741 116.519 26.9084 117.001 25.5484L116.905 25.3541ZM106.89 12.8227C107.66 11.657 109.008 10.977 110.356 10.977C111.319 10.977 112.186 11.2684 112.86 11.9484C113.534 12.6284 113.823 13.5027 113.823 14.4741C113.823 14.8627 113.823 15.1541 113.631 15.4456C113.438 15.737 113.245 16.0284 112.956 16.2227C112.09 16.7084 111.031 16.9027 110.068 16.9027L105.542 16.9999C105.542 15.5427 106.023 14.0856 106.89 12.8227Z" fill="#31373D"/>
<path d="M118.445 29.6285V29.3371C118.83 29.2399 119.216 29.0456 119.408 28.7542C119.601 28.2685 119.697 27.7828 119.697 27.2971V8.54851C119.697 7.86851 119.601 7.28565 119.408 6.60565C119.216 6.21708 118.83 5.82851 118.445 5.63422V5.34279L123.164 4.46851V27.1999C123.164 27.6856 123.26 28.2685 123.453 28.6571C123.549 28.8514 123.742 28.9485 123.838 29.0456C124.031 29.1428 124.223 29.2399 124.416 29.2399V29.5314L118.445 29.6285Z" fill="#31373D"/>
<path d="M90.326 29.0458C89.9408 28.9487 89.5556 28.6572 89.363 28.2687C88.9779 27.6858 88.689 27.0058 88.5927 26.3258L85.4149 16.0287C84.8371 13.7944 83.9704 11.9487 82.8149 11.0744C81.6593 10.2001 80.1186 9.81153 78.0001 10.0058C76.9408 10.103 75.9779 10.2972 75.0149 10.6858C74.2445 10.9772 73.5704 11.5601 72.9927 12.143C72.8001 12.4344 72.6075 12.7258 72.5112 13.0172C72.4149 13.3087 72.3186 13.6972 72.4149 13.9887C72.4149 14.183 72.4149 14.3772 72.5112 14.4744C72.6075 14.6687 72.7038 14.7658 72.8001 14.863C72.8964 14.9601 73.089 15.0572 73.1853 15.0572C73.3779 15.1544 73.4741 15.1544 73.6667 15.0572C74.3408 14.9601 74.726 14.4744 74.8223 13.503C74.8223 12.7258 75.1112 12.0458 75.5927 11.463C76.0741 10.9772 76.8445 10.6858 77.5186 10.6858C78.1927 10.5887 78.7704 10.6858 79.3482 11.0744C79.926 11.463 80.3112 12.0458 80.6001 12.7258C80.889 13.4058 81.1779 13.9887 81.3704 14.6687C78.289 16.3201 76.0741 17.9715 74.6297 19.5258C73.1853 20.983 72.5112 23.023 72.8001 25.063C72.8964 26.6172 73.6667 27.9772 74.9186 28.8515C76.2667 29.823 77.9038 30.1144 79.5408 29.9201C80.9853 29.823 82.4297 29.2401 83.489 28.3658C84.163 27.8801 84.6445 27.2001 85.126 26.423C85.3186 27.2972 85.8001 28.0744 86.3779 28.7544C86.763 29.0458 87.1482 29.2401 87.5334 29.3372C87.9186 29.4344 88.4001 29.4344 88.8816 29.4344L90.326 29.3372V29.0458ZM83.7779 26.8115C83.0075 27.3944 82.1408 27.783 81.1779 27.8801C80.5038 27.9772 79.926 27.9772 79.3482 27.783C78.7704 27.5887 78.1927 27.2972 77.7112 26.9087C76.8445 26.0344 76.2667 24.8687 76.1704 23.6058C76.0741 21.9544 76.6519 20.303 77.7112 18.943C78.7704 17.4858 80.1186 16.223 81.563 15.2515C81.6593 15.543 81.7556 15.9315 81.8519 16.3201L84.8371 25.8401C84.5482 26.2287 84.163 26.5201 83.7779 26.8115Z" fill="#31373D"/>
<path d="M49.3025 5.34279V26.7142C49.3988 27.2971 49.2062 27.9771 48.9174 28.4628C48.5322 28.8514 47.9544 29.1428 47.4729 29.2399V29.6285H54.8877V29.2399C54.31 29.1428 53.8285 28.9485 53.347 28.4628C53.0581 27.9771 52.8655 27.2971 52.9618 26.7142V5.34279H53.2507C56.0433 5.43993 58.8359 6.60565 60.3766 9.42279L60.8581 9.32565L59.51 4.46851H42.7544L41.4062 9.32565L41.8877 9.42279C43.4285 6.60565 46.2211 5.43993 49.0137 5.34279H49.3025Z" fill="#31373D"/>
<path d="M11.9407 0.194092C11.2666 0.194092 10.7852 0.679806 10.7852 1.35981V9.71409H32.5481L22.6296 0.194092H11.9407Z" fill="#005EB8"/>
<path d="M33.3198 12.2399C33.3198 11.5599 32.8384 11.0742 32.1643 11.0742H23.8828V33.0285L33.3198 23.0228V12.2399Z" fill="#005EB8"/>
<path d="M21.3769 33.8056C22.051 33.8056 22.5325 33.3199 22.5325 32.6399V24.2856H0.769531L10.6881 33.8056H21.3769Z" fill="#005EB8"/>
<path d="M0 21.7598C0 22.4398 0.481482 22.9255 1.15556 22.9255H9.43704V0.971191L0 10.9769V21.7598Z" fill="#005EB8"/>
<path d="M127.11 5.63425C127.013 5.5371 126.821 5.43996 126.628 5.43996H126.339C126.243 5.43996 126.147 5.34282 126.05 5.34282L125.954 5.24567V5.14853V5.05139L126.05 4.95425C126.147 4.8571 126.243 4.8571 126.436 4.8571C126.532 4.8571 126.724 4.8571 126.821 4.95425L126.917 5.05139C126.917 5.05139 126.917 5.14853 126.917 5.24567H127.206C127.206 5.14853 127.206 5.05139 127.11 4.95425C127.11 4.8571 127.013 4.75996 126.917 4.75996C126.725 4.66282 126.532 4.56567 126.339 4.56567C126.147 4.56567 125.954 4.66282 125.762 4.75996C125.665 4.8571 125.665 4.8571 125.569 4.95425C125.569 5.05139 125.473 5.14853 125.473 5.24567C125.473 5.43996 125.569 5.5371 125.665 5.63425C125.762 5.73139 125.954 5.82853 126.147 5.82853L126.436 5.92567C126.532 5.92567 126.628 6.02282 126.725 6.02282L126.821 6.11996V6.2171C126.821 6.31425 126.821 6.31425 126.821 6.41139L126.725 6.50853C126.628 6.60567 126.436 6.60567 126.339 6.60567C126.243 6.60567 126.05 6.60567 125.954 6.50853L125.858 6.41139C125.858 6.31425 125.858 6.31425 125.858 6.2171H125.569C125.569 6.31425 125.569 6.41139 125.569 6.50853C125.569 6.60567 125.665 6.70282 125.762 6.70282C125.954 6.79996 126.147 6.8971 126.436 6.8971C126.628 6.8971 126.821 6.79996 127.013 6.70282C127.11 6.60567 127.11 6.60567 127.206 6.50853C127.206 6.41139 127.302 6.31425 127.302 6.2171C127.302 6.11996 127.302 6.02282 127.302 6.02282C127.206 5.73139 127.206 5.73139 127.11 5.63425Z" fill="#31373D"/>
<path d="M129.904 4.46851H129.711H129.615L128.844 6.21708L128.17 4.46851H128.074H127.785V6.70279H128.074V5.05136L128.748 6.70279H128.941L129.711 5.14851V6.70279H130V4.46851H129.904Z" fill="#31373D"/>
</g>
<defs>
<clipPath id="clip0_2037_7092">
<rect width="130" height="34" fill="white"/>
</clipPath>
</defs>
</svg>
