<?xml version="1.0" encoding="UTF-8"?>
<svg id="Layer_1" xmlns="http://www.w3.org/2000/svg" xmlns:xlink="http://www.w3.org/1999/xlink" version="1.1" viewBox="0 0 130 47">
  <!-- Generator: Adobe Illustrator 29.1.0, SVG Export Plug-In . SVG Version: 2.1.0 Build 142)  -->
  <defs>
    <style>
      .st0 {
        fill: none;
      }

      .st1 {
        fill: #fff;
      }

      .st2 {
        clip-path: url(#clippath);
      }
    </style>
    <clipPath id="clippath">
      <rect class="st0" width="130" height="47"/>
    </clipPath>
  </defs>
  <rect class="st1" x="11.5" y="12.7" width="107.3" height="20.2"/>
  <g class="st2">
    <path d="M23.8,23.5c0-2.8-.9-4.5-2.5-4.5s-2.5,1.6-2.5,4.5.9,4.5,2.5,4.5,2.5-1.6,2.5-4.5ZM49.9,23.5c0-2.9-1.3-4.4-3.8-4.4h-.4v8.7h.5c2.5,0,3.7-1.4,3.7-4.3ZM80.6,25.6h2.9l-1.4-7.5-1.4,7.5ZM115.8,15.6l-4.4,11.3v4.5h-4.3v-4.5l-4.5-11.4h4.4l2.4,6.8,2.3-6.8h4.1ZM101.9,15.6l-3.4,15.8h-6.1l-3.5-15.8h4.3l2.3,12,2.3-12h4.1ZM85.5,15.6l3.4,15.8h-4.4l-.4-2.4h-4.2l-.4,2.4h-4.2l3.4-15.8h6.8ZM73.6,31.4h-4.7l-4.2-10.2v10.2h-3.8v-15.8h5.1l3.8,9.3v-9.3h3.8v15.8ZM54.4,23.5c0,4.9-3.2,7.9-8.4,7.9h-4.6v-15.8h4.9c5.1,0,8.1,2.9,8.1,7.9ZM39.5,31.4h-9.2v-15.8h4.3v12.2h5v3.7h0ZM28.3,23.5c0,4.9-2.8,8.1-7.1,8.1s-7-3.2-7-8.1,2.8-8.1,7.1-8.1,7,3.2,7,8.1ZM130,23.5c0-3.9-2.1-7.4-6.2-10.5-3.4-2.6-8.2-5-14.2-7-12-3.9-28-6-44.6-6S32.4,2.2,20.4,6c-6,2-10.8,4.3-14.2,7C2.1,16.1,0,19.6,0,23.5s2.1,7.4,6.2,10.5c3.4,2.6,8.2,5,14.2,7,12,3.8,28,6,44.6,6s32.6-2.2,44.6-6c6-2,10.8-4.3,14.2-7,4.1-3.2,6.2-6.7,6.2-10.5Z"/>
  </g>
</svg>