<svg width="100" height="100" viewBox="0 0 100 100" fill="none" xmlns="http://www.w3.org/2000/svg">
<g clip-path="url(#clip0_2037_7095)">
<path d="M50 100C77.6142 100 100 77.6142 100 50C100 22.3858 77.6142 0 50 0C22.3858 0 0 22.3858 0 50C0 77.6142 22.3858 100 50 100Z" fill="#EAF6FF"/>
<path d="M30 44.9377H70V73.6877C70 74.0192 69.8683 74.3371 69.634 74.5715C69.3996 74.8061 69.0817 74.9377 68.75 74.9377H31.25C30.9185 74.9377 30.6006 74.8061 30.3663 74.5715C30.1317 74.3371 30 74.0192 30 73.6877V44.9377Z" fill="#005EB8"/>
<path d="M45 74.9375L70 49.9375V73.6875C70 74.019 69.8683 74.3369 69.6338 74.5712C69.3994 74.8058 69.0815 74.9375 68.75 74.9375H45Z" fill="#002F6C"/>
<path d="M55 47.4375H45V74.9375H55V47.4375Z" fill="#FFB81C"/>
<path d="M45 74.9372L55 64.9373V74.9372H45Z" fill="#FBA14B"/>
<path d="M62.1253 22.856C61.4958 22.2267 60.7226 21.76 59.8722 21.4964C59.022 21.2329 58.1203 21.1804 57.2453 21.3435C56.3701 21.5064 55.5481 21.8802 54.8497 22.4325C54.1516 22.9846 53.5983 23.6983 53.2379 24.5123L50.0003 31.8748L46.7628 24.5123C46.4031 23.6958 45.8493 22.9796 45.1499 22.4256C44.4503 21.8717 43.6264 21.4969 42.7491 21.3337C41.872 21.1704 40.9683 21.2239 40.1164 21.4894C39.2645 21.7548 38.4903 22.2242 37.861 22.8567C37.2318 23.4894 36.7664 24.2658 36.5053 25.1192C36.2445 25.9723 36.1956 26.8764 36.3633 27.7527C36.531 28.6289 36.9101 29.4512 37.4676 30.1477C38.0253 30.8444 38.7445 31.3944 39.5628 31.7498L49.5003 36.081H49.5316H50.1566H50.1878H50.2253L60.4378 31.7498C61.2551 31.3929 61.9731 30.8419 62.5293 30.1446C63.0856 29.4473 63.4631 28.6248 63.6293 27.7483C63.7956 26.8721 63.7456 25.9685 63.4835 25.1158C63.2214 24.2633 62.7551 23.4877 62.1253 22.856ZM40.5628 29.456C40.1197 29.2621 39.7306 28.9631 39.4291 28.585C39.1276 28.2067 38.9231 27.7606 38.8328 27.2856C38.7426 26.8104 38.7697 26.3204 38.9116 25.8581C39.0533 25.3956 39.3058 24.9748 39.647 24.6321C39.9881 24.2892 40.4076 24.0348 40.8695 23.8906C41.3312 23.7467 41.821 23.7173 42.2966 23.8052C42.7722 23.8931 43.2191 24.0958 43.5987 24.3954C43.9785 24.695 44.2793 25.0827 44.4753 25.5248L47.5628 32.4998L40.5628 29.456ZM61.1879 27.281C61.1006 27.7589 60.8962 28.2079 60.5931 28.5875C60.2897 28.9671 59.8972 29.2654 59.4503 29.456L52.4378 32.4998L55.5253 25.5123C55.7166 25.0671 56.0156 24.6764 56.3951 24.3754C56.7747 24.0742 57.2233 23.8721 57.7003 23.7873C57.8878 23.7523 58.0783 23.7356 58.2691 23.7373C58.7051 23.7408 59.1351 23.84 59.5287 24.0277C59.9224 24.2154 60.2699 24.4873 60.5472 24.8239C60.8243 25.1606 61.0241 25.5542 61.1326 25.9764C61.2412 26.3989 61.2558 26.84 61.1754 27.2685L61.1879 27.281Z" fill="#002F6C"/>
<path d="M70 44.9377H30V47.4377H70V44.9377Z" fill="#002F6C"/>
<path d="M73.75 34.9375H26.25C25.5596 34.9375 25 35.4971 25 36.1875V43.6875C25 44.3779 25.5596 44.9375 26.25 44.9375H73.75C74.4404 44.9375 75 44.3779 75 43.6875V36.1875C75 35.4971 74.4404 34.9375 73.75 34.9375Z" fill="#0091DA"/>
</g>
<defs>
<clipPath id="clip0_2037_7095">
<rect width="100" height="100" fill="white"/>
</clipPath>
</defs>
</svg>
