<svg width="48" height="48" viewBox="0 0 48 48" fill="none" xmlns="http://www.w3.org/2000/svg">
<g clip-path="url(#clip0_3670_34616)">
<path d="M24 48C37.2548 48 48 37.2548 48 24C48 10.7452 37.2548 0 24 0C10.7452 0 0 10.7452 0 24C0 37.2548 10.7452 48 24 48Z" fill="#E8F5FE"/>
<path d="M34.7996 15H9.59961V29.4H34.7996V15Z" fill="#8BBE4B"/>
<path d="M38.3992 18.6H13.1992V33H38.3992V18.6Z" fill="#0091DA"/>
<path d="M29.3366 18.6V19.047C29.364 20.8687 29.0291 22.6777 28.3511 24.3688C27.6732 26.06 26.6658 27.5994 25.3876 28.8978C24.1094 30.1961 22.5858 31.2273 20.9055 31.9316C19.2251 32.6358 17.4216 32.999 15.5996 33H38.3996V18.6H29.3366Z" fill="#005EB8"/>
<path d="M25.8 30.6C28.451 30.6 30.6 28.451 30.6 25.8C30.6 23.149 28.451 21 25.8 21C23.149 21 21 23.149 21 25.8C21 28.451 23.149 30.6 25.8 30.6Z" fill="white"/>
<path d="M27.5091 26.541C27.4607 26.224 27.2947 25.937 27.0441 25.737C26.7756 25.5438 26.4687 25.4108 26.1441 25.347L25.8921 25.281C25.8119 25.2634 25.7328 25.2413 25.6551 25.215C25.5107 25.1806 25.3722 25.125 25.2441 25.05C25.1888 25.0133 25.1422 24.9651 25.1075 24.9086C25.0728 24.8522 25.0508 24.7888 25.0431 24.723C25.0455 24.654 25.0628 24.5863 25.0939 24.5247C25.125 24.463 25.1691 24.4089 25.2231 24.366C25.3614 24.2662 25.5299 24.2175 25.7001 24.228C26.0494 24.2168 26.3925 24.3224 26.6751 24.528C26.7626 24.5876 26.8703 24.6101 26.9744 24.5904C27.0784 24.5707 27.1704 24.5105 27.2301 24.423C27.2898 24.3354 27.3122 24.2278 27.2926 24.1237C27.2729 24.0196 27.2126 23.9276 27.1251 23.868C26.8366 23.6692 26.5095 23.5333 26.1651 23.469V23.25C26.1643 23.1444 26.122 23.0433 26.0474 22.9687C25.9727 22.894 25.8717 22.8517 25.7661 22.851C25.66 22.8517 25.5585 22.8944 25.4838 22.9698C25.409 23.0451 25.3671 23.1469 25.3671 23.253V23.463C25.1214 23.4988 24.8907 23.6027 24.7011 23.763C24.5559 23.8785 24.4396 24.0261 24.3611 24.1943C24.2826 24.3624 24.2442 24.5464 24.2488 24.7319C24.2535 24.9174 24.3011 25.0992 24.3879 25.2632C24.4747 25.4272 24.5983 25.5688 24.7491 25.677C24.9478 25.8164 25.1705 25.9181 25.4061 25.977C25.5471 26.022 25.6221 26.04 25.7061 26.061C25.7901 26.082 25.8231 26.088 25.9221 26.118C26.1344 26.1583 26.3376 26.2366 26.5221 26.349C26.6207 26.4221 26.689 26.5288 26.7141 26.649C26.7234 26.7402 26.7023 26.8319 26.6541 26.91C26.6073 26.9816 26.5434 27.0403 26.4681 27.081C26.2165 27.2035 25.93 27.2343 25.6581 27.168C25.3163 27.1031 25.0024 26.9356 24.7581 26.688C24.7215 26.649 24.6775 26.6178 24.6286 26.5962C24.5797 26.5746 24.527 26.5631 24.4735 26.5623C24.4201 26.5614 24.3671 26.5713 24.3175 26.5914C24.268 26.6115 24.223 26.6413 24.1852 26.6791C24.1474 26.7169 24.1176 26.7618 24.0976 26.8114C24.0775 26.8609 24.0676 26.914 24.0684 26.9674C24.0692 27.0208 24.0808 27.0735 24.1024 27.1224C24.124 27.1713 24.1552 27.2154 24.1941 27.252C24.5193 27.5684 24.9233 27.7922 25.3641 27.9V28.2C25.3641 28.3058 25.4061 28.4073 25.481 28.4821C25.5558 28.5569 25.6573 28.599 25.7631 28.599C25.8689 28.599 25.9704 28.5569 26.0452 28.4821C26.1201 28.4073 26.1621 28.3058 26.1621 28.2V27.975C26.4137 27.9551 26.6576 27.8793 26.8761 27.753C27.0674 27.6433 27.2283 27.4876 27.3441 27.3C27.4807 27.0718 27.5386 26.8052 27.5091 26.541Z" fill="#002F6C"/>
</g>
<defs>
<clipPath id="clip0_3670_34616">
<rect width="48" height="48" fill="white"/>
</clipPath>
</defs>
</svg>
