<svg width="48" height="48" viewBox="0 0 48 48" fill="none" xmlns="http://www.w3.org/2000/svg">
<g clip-path="url(#clip0_2220_20882)">
<path d="M24 48C37.2548 48 48 37.2548 48 24C48 10.7452 37.2548 0 24 0C10.7452 0 0 10.7452 0 24C0 37.2548 10.7452 48 24 48Z" fill="#E8F5FE"/>
<path d="M36 15.5996H12C11.3372 15.5996 10.8 16.1369 10.8 16.7996V31.1996C10.8 31.8624 11.3372 32.3996 12 32.3996H36C36.6627 32.3996 37.2 31.8624 37.2 31.1996V16.7996C37.2 16.1369 36.6627 15.5996 36 15.5996Z" fill="#0091DA"/>
<path d="M19.2 32.3996H36C36.3183 32.3996 36.6235 32.2732 36.8485 32.0481C37.0736 31.8231 37.2 31.5179 37.2 31.1996V16.7996C37.2 16.4813 37.0736 16.1761 36.8485 15.9511C36.6235 15.726 36.3183 15.5996 36 15.5996L19.2 32.3996Z" fill="#005EB8"/>
<path d="M24 28.7992C26.651 28.7992 28.8 26.6502 28.8 23.9992C28.8 21.3483 26.651 19.1992 24 19.1992C21.349 19.1992 19.2 21.3483 19.2 23.9992C19.2 26.6502 21.349 28.7992 24 28.7992Z" fill="white"/>
<path d="M24 25.5787L22.146 26.5537L22.5 24.4897L21 23.0257L23.073 22.7257L24 20.8477L24.927 22.7257L27 23.0257L25.5 24.4897L25.854 26.5537L24 25.5787Z" fill="#8BBE4B"/>
</g>
<defs>
<clipPath id="clip0_2220_20882">
<rect width="48" height="48" fill="white"/>
</clipPath>
</defs>
</svg>
