<svg width="48" height="48" viewBox="0 0 48 48" fill="none" xmlns="http://www.w3.org/2000/svg">
<g clip-path="url(#clip0_2220_20903)">
<path d="M24 48C37.2548 48 48 37.2548 48 24C48 10.7452 37.2548 0 24 0C10.7452 0 0 10.7452 0 24C0 37.2548 10.7452 48 24 48Z" fill="#E8F5FE"/>
<path d="M29.82 20.7305L31.95 35.5805L30.66 36.8405L24.72 25.8305L29.82 20.7305Z" fill="#005EB8"/>
<path d="M27.27 18.1808L12.42 16.0508L11.16 17.3408L22.17 23.2808L27.27 18.1808Z" fill="#0091DA"/>
<path d="M27.27 18.1798L22.17 23.2798L19.98 22.0798L24.3 17.7598L27.27 18.1798Z" fill="#005EB8"/>
<path d="M34.47 13.5303C33.21 12.2703 30.3 13.4703 27.27 16.5003L17.1 26.6703L16.47 29.0103L12 28.3803L11.16 29.2203L15.39 31.7703L15.81 31.3503L16.65 32.1903L16.23 32.6103L18.78 36.8403L19.62 36.0003L18.99 31.5603L21.33 30.9003L31.5 20.7303C34.56 17.7003 35.76 14.7903 34.47 13.5303Z" fill="#0091DA"/>
<path d="M32.16 17.8195C33 16.6795 33.27 15.6895 32.76 15.2095C32.25 14.7295 31.29 14.9695 30.15 15.8095C31.2 15.9595 32.01 16.7695 32.16 17.8195Z" fill="#FFB81C"/>
<path d="M14.13 33.8708C13.89 33.6308 13.89 33.2708 14.13 33.0308L16.68 30.4808C16.92 30.2408 17.28 30.2408 17.52 30.4808C17.76 30.7208 17.76 31.0808 17.52 31.3208L14.97 33.8708C14.73 34.1109 14.34 34.1109 14.13 33.8708Z" fill="#005EB8"/>
</g>
<defs>
<clipPath id="clip0_2220_20903">
<rect width="48" height="48" fill="white"/>
</clipPath>
</defs>
</svg>
